#!OML:ASF F:\VICON\USERDATA\INSTALL\rory3\rory3.ASF
:FULLY-SPECIFIED
:DEGREES
163
root 1.082520780550487 17.852939540537264 44.72616099454019 -3.9851674828610584 -1.4887228632900003 -0.08354648600518177
lfemur 5.782189750015341 -2.85981078853497 -21.045466672937597
ltibia 49.992090117722526
lfoot -14.057648931394795 -1.2871007986173448
ltoes -7.7258877376674775
rfemur -10.77185269297086 2.525860819194435 22.888899391418626
rtibia 33.86073795515408
rfoot -17.116584593793043 -9.586456115103932
rtoes -5.94872849089838
lowerback 9.320678459731045 -0.8222520199423636 0.0422702010254945
upperback 0.160401883374387 -0.9841116452357668 1.7495926902445211
thorax -5.043443556880938 -0.5515522498800902 1.9407506838863837
lowerneck -16.38983550004615 -2.9262405979004367 -1.7208891015535248
upperneck 21.560397331742408 -3.7170596067459196 0.3165653575718012
head 9.573288442596514 -1.8429579874911037 -0.09182142714548563
lclavicle -3.616362944022348e-16 5.803562888544067e-16
lhumerus -27.93719428474958 3.2533656305155887 80.20117593554664
lradius 22.970210875108517
lwrist 7.922527435083552
lhand -29.020052318717752 21.78507451810797
lfingers 7.12502
lthumb -2.5540953099063595 51.47478197493395
rclavicle -3.6163629435484877e-16 5.803562888866232e-16
rhumerus -29.532491112256885 -17.4850825402349 -78.11177721961576
rradius 32.5471946126324
rwrist 2.7194133733609207
rhand -18.06716667989659 21.363821734231443
rfingers 7.12502
rthumb 8.309364219306284 -7.017246512003098
164
root 1.047348336472595 17.836566613693147 45.0148821874343 -4.17551784993465 -1.6111128135907928 0.20498017748798603
lfemur 5.65898492035933 -2.6935518144466175 -21.168677257478
ltibia 50.60389500484301
lfoot -13.692300294609229 -1.5169985901042962
ltoes -5.787406341067557
rfemur -11.336248222900034 2.4666881416784356 22.481427363978923
rtibia 35.421739393783454
rfoot -17.493446515581404 -9.638213784071493
rtoes -5.268745945241078
lowerback 9.424451970218072 -0.7320983260086192 -0.2325974607727057
upperback 0.2009898239366797 -0.902689559096022 1.6832833259939668
thorax -5.097661872625458 -0.4979010312248761 1.8795797223897797
lowerneck -16.37944491535923 -2.919948553694235 -1.7230770662288812
upperneck 21.474703857909603 -3.711791278770722 0.3816611636422715
head 9.524466038032026 -1.8426675778632982 -0.06137543772917336
lclavicle -3.61636294396257e-16 5.803562888583651e-16
lhumerus -28.305870456495917 2.8496091326941726 80.22064106606186
lradius 22.66328963619514
lwrist 7.887504442831583
lhand -28.93252917017674 21.58803393472055
lfingers 7.12502
lthumb -2.4823109708176556 51.242919277731225
rclavicle -3.616362943580881e-16 5.803562888843958e-16
rhumerus -29.54550550856144 -18.030424060651633 -78.15754318695338
rradius 32.491433021096306
rwrist 2.881463574440956
rhand -18.070652687338676 21.223621165509865
rfingers 7.12502
rthumb 8.35434561170456 -7.1990059564261735
165
root 1.0446232500911279 17.825091714685733 45.23002495658176 -4.256273922078387 -1.6098063533467626 0.3406805116085665
lfemur 5.1865345456182865 -2.552717861312639 -21.194287927342554
ltibia 51.10611749416738
lfoot -13.57430664938759 -1.6903722246741915
ltoes -6.117607704633602
rfemur -11.797029136797192 2.3987636649209625 22.267931097760716
rtibia 36.714468822918384
rfoot -17.99077966755789 -9.816334518561403
rtoes -4.470183310398668
lowerback 9.461090486871427 -0.6661328209820617 -0.33925506409387096
upperback 0.22407950895767836 -0.8386875674010177 1.6649347587595633
thorax -5.154747985360126 -0.4862814904418709 1.7944518916204244
lowerneck -16.416519986077557 -2.9141646776797114 -1.687110639505585
upperneck 21.4044441859022 -3.7078930983481944 0.4285119284500264
head 9.518935660172842 -1.8356567338758032 -0.046199626641779394
lclavicle -3.616362944001708e-16 5.803562888557903e-16
lhumerus -27.919256199076735 3.1810406393971253 80.5284005648414
lradius 22.513749676319634
lwrist 7.701587840260932
lhand -28.919274528138217 21.536620943508314
lfingers 7.12502
lthumb -2.455563846457689 51.17695177707373
rclavicle -3.61636294363856e-16 5.803562888806329e-16
rhumerus -29.3983599977779 -18.298788174760528 -78.28195507386292
rradius 32.47493072786771
rwrist 3.0260821196752623
rhand -18.025025956556156 21.1764355925181
rfingers 7.12502
rthumb 8.433236787450506 -7.245919422652349
166
root 1.0143395711959682 17.82310945241686 44.94044650584896 -4.094836842525852 -1.5886091384159693 -0.0043474166737942355
lfemur 4.602600611460495 -2.3863004325122104 -20.714864738111142
ltibia 51.647218008811066
lfoot -13.409773785303301 -1.8635514193206597
ltoes -4.719597715937207
rfemur -12.102559758175465 2.4323708197697522 22.466098099062933
rtibia 37.23677775457626
rfoot -18.42365128129511 -10.003644636025829
rtoes -4.852818443315107
lowerback 9.489626999003914 -0.633352451055563 -0.15382021445501315
upperback 0.2218537071771732 -0.7770270926213607 1.7059076495738155
thorax -5.209529766027 -0.4503532918276066 1.7833746137496576
lowerneck -16.50151230645918 -2.902359464068881 -1.5986604808022455
upperneck 21.43215583651419 -3.6851809030578737 0.37234643667406986
head 9.572671863316351 -1.823604238300529 -0.09657648748574882
lclavicle -3.6163629440183406e-16 5.803562888545201e-16
lhumerus -28.337579807507247 2.6738482103019314 80.53655724547983
lradius 22.461439313334044
lwrist 7.885847278002569
lhand -28.913203134400323 21.672281973685212
lfingers 7.12502
lthumb -2.477266739983288 51.297898110419084
rclavicle -3.616362943677211e-16 5.803562888778476e-16
rhumerus -29.207946627633667 -18.46048660155758 -78.44602240565635
rradius 32.51291212176366
rwrist 3.1666893954850046
rhand -18.018124366858263 21.077357743983104
rfingers 7.12502
rthumb 8.458380909851792 -7.451291868210883
